<svg width="24" height="24" viewBox="0 0 24 24" fill="none" xmlns="http://www.w3.org/2000/svg">
<path d="M19.75 21.5H15.25C14.5586 21.5 14 20.9414 14 20.25V15.75C14 15.1973 13.5527 14.75 13 14.75H11C10.4473 14.75 10 15.1973 10 15.75V20.25C10 20.9414 9.44141 21.5 8.75 21.5H4.25C3.55859 21.5 3 20.9414 3 20.25V10.707C3 9.55664 3.52734 8.4707 4.42969 7.75977L11.5352 2.16016C11.8086 1.94727 12.1914 1.94727 12.4648 2.16016L19.5703 7.75977C20.4727 8.4707 21 9.55664 21 10.7051V20.25C21 20.9414 20.4414 21.5 19.75 21.5Z" fill="#EF2828"/>
</svg>
