<svg width="312" height="358" viewBox="0 0 312 358" fill="none" xmlns="http://www.w3.org/2000/svg">
<path d="M100.286 0C81.8304 0 66.8571 15.0332 66.8571 33.5625V67.125V87.0527V123.062C66.8571 129.216 61.8429 134.25 55.7143 134.25C49.5857 134.25 44.5714 129.216 44.5714 123.062V104.393L38.3036 109.638C28.1357 118.168 22.2857 130.754 22.2857 144.039V170.609C22.2857 197.18 34.0554 222.352 54.3911 239.343L89.1429 268.5V335.625C89.1429 348.001 99.1018 358 111.429 358H222.857C235.184 358 245.143 348.001 245.143 335.625V261.997C277.805 248.712 300.857 216.548 300.857 179V123.062V111.875V100.688C300.857 82.1582 285.884 67.125 267.429 67.125C258.793 67.125 250.993 70.4113 245.073 75.7254C243.75 58.3848 229.334 44.75 211.714 44.75C203.079 44.75 195.279 48.0363 189.359 53.3504C188.036 36.0098 173.62 22.375 156 22.375C147.364 22.375 139.564 25.6613 133.645 30.9754C132.321 13.6348 117.905 0 100.286 0Z" fill="#EF2828"/>
<rect x="89" y="298" width="157" height="60" fill="#15325E"/>
</svg>
